<svg width="416" height="356" viewBox="0 0 416 356" fill="none" xmlns="http://www.w3.org/2000/svg">
<g clip-path="url(#clip0_5882_149779)">
<path d="M117.66 12.6621H299C302.866 12.6621 306 15.7961 306 19.6621V186.837C306 190.703 302.866 193.837 299 193.837H117.66C113.794 193.837 110.66 190.703 110.66 186.837V19.6621C110.66 15.7961 113.794 12.6621 117.66 12.6621Z" fill="white" stroke="white" stroke-width="26" stroke-miterlimit="10"/>
<path d="M106.269 7.4624H205.491C205.491 7.4624 199.96 11.472 198.749 16.5603C197.538 21.6485 197.792 25.2714 198.688 27.6883C198.667 28.4429 198.422 29.1743 197.985 29.7898C197.283 30.6752 197.349 27.9427 194.108 28.131C190.867 28.3193 186.343 27.3067 180.304 38.1855C180.304 38.1855 178.334 43.2076 178.014 47.5326C177.693 51.8577 177.317 57.7754 177.887 59.3018C178.457 60.8283 171.72 60.4416 171.72 60.4416C171.72 60.4416 170 60.8894 169.939 61.5916C169.878 62.2938 169.939 65.9777 170 68.074C170.061 70.1704 169.552 71.3814 169.364 73.3557C169.176 75.3299 167.903 77.1108 168.092 79.3344C168.28 81.558 171.781 81.6903 173.816 81.8786C175.851 82.0668 175.658 82.5146 174.518 82.8301C173.378 83.1455 170 83.2168 170.127 87.2874C170.254 91.358 171.526 101.026 171.842 103.631C172.157 106.236 169.873 103.885 170.127 104.649C170.381 105.412 169.237 104.201 168.534 107.132C167.832 110.063 168.728 109.544 169.043 109.93C169.129 110.037 169.235 110.125 169.356 110.19C169.477 110.255 169.609 110.295 169.745 110.307L168.789 111.645L168.473 113.172L168.982 114.255L169.491 114.698C169.134 115.105 168.942 115.631 168.953 116.173C168.965 116.714 169.178 117.232 169.552 117.624C170.89 119.15 170.254 118.448 170.127 119.913C170 121.379 167.328 132.253 168.026 137.02C168.723 141.788 166.377 143.259 165.359 145.355C164.342 147.451 158.424 156.676 158.678 158.839C158.933 161.001 158.103 163.291 157.472 164.497C156.842 165.703 154.033 168.568 154.165 171.56C154.297 174.551 154.481 174.994 155.88 176.266C155.88 176.266 154.674 180.403 154.226 182.118C153.778 183.833 152.064 190.58 151.743 191.786C151.422 192.991 150.858 195.281 151.046 196.492L150.858 197.001H106.269V7.4624Z" fill="#111827"/>
<path d="M166.245 197.001H219.356C219.356 197.001 219.804 190.701 221.265 187.842C222.725 184.982 222.409 181.481 222.282 179.192C222.155 176.902 222.47 172.892 220.628 171.875L220.313 169.076C220.313 169.076 218.466 164.883 218.975 163.8C218.848 162.594 218.466 152.351 218.466 152.351C218.466 152.351 219.041 150.443 220.12 149.68C220.435 148.723 220.69 143.192 219.55 142.047C218.532 140.902 217.769 140.969 215.479 140.714C213.189 140.46 214.461 143.065 206.575 130.853C205.236 128.563 203.837 126.401 203.201 125.571C202.565 124.742 201.608 124.747 200.148 124.62C198.688 124.493 198.494 124.432 197.222 122.076L195.95 119.72C195.95 119.72 195.625 119.089 194.327 123.093C193.03 127.098 191.686 123.093 189.142 133.082C187.555 136.45 187.427 136.832 187.173 141.345C186.537 143.635 185.204 144.21 183.799 145.1C182.395 145.991 182.212 148.469 181.703 149.11C181.194 149.751 179.159 149.741 178.08 153.557C177.002 157.373 176.808 155.15 177.887 158.711C177.887 158.711 176.299 164.817 175.343 166.217C174.386 167.616 172.86 171.498 172.417 173.279C171.974 175.06 170 177.604 168.535 177.859C167.069 178.113 165.421 183.456 165.227 184.916C165.034 186.376 164.464 194.202 165.227 195.347C165.444 195.965 165.791 196.529 166.245 197.001Z" fill="#111827"/>
<path d="M219.61 7.4624H310.604V197.001H250.491C250.04 196.564 249.71 196.017 249.534 195.413C249.092 194.202 243.78 192.106 242.192 191.689C240.605 191.272 237.45 186.092 236.371 184.982C235.973 184.448 235.711 183.824 235.608 183.166L235.002 172.862C234.956 172.395 235.093 171.928 235.384 171.56C235.862 171.02 236.717 169.651 236.626 168.537C236.534 167.423 236.117 162.909 235.862 162.34C235.608 161.77 235.699 160.813 235.669 160.304C235.638 159.795 236.274 158.3 236.432 157.76C236.59 157.221 238.055 145.96 237.928 145.228C237.801 144.495 237.867 138.74 236.91 138.135C235.954 137.529 236.717 134.863 236.402 134.415C236.086 133.967 234.936 134.573 234.524 133.082C234.112 131.591 229.756 121.343 229.756 121.343L226.861 115.365C226.861 115.365 219.04 104.14 218.114 103.28C217.188 102.42 216.969 97.0467 217.799 95.6831C218.628 94.3194 219.04 95.9019 219.132 95.9019C219.224 95.9019 221.361 97.2706 222.282 96.314C223.203 95.3574 225.62 91.6125 225.655 90.1776C225.691 88.7427 226.352 74.5667 225.91 73.895C225.747 73.2285 225.365 70.8421 222.821 69.9516C220.277 69.0612 222.887 68.1097 222.821 66.7714C222.755 65.4332 222.378 64.4817 223.299 65.1178C224.22 65.7538 234.651 71.5443 236.02 71.7325C236.87 71.8862 237.731 71.9611 238.595 71.9564C239.551 71.9564 240.666 73.1318 241.078 72.9741C241.52 72.9741 243.113 73.0402 246.548 70.1755C249.982 67.3108 250.552 67.6314 251.382 64.7056C252.211 61.7798 251.951 57.6125 253.763 57.1699C255.574 56.7272 257.136 58.3452 255.259 52.3665C254.368 46.6117 254.592 46.3572 255.422 46.2911C256.149 45.9095 255.93 46.0062 257.579 44.1591C259.228 42.3121 259.268 42.2205 259.36 42.0322C259.43 41.7615 259.463 41.4824 259.457 41.2028C259.457 41.2028 259.965 40.8873 260.123 40.7601C260.473 40.5774 260.849 40.4488 261.238 40.3785C261.395 40.3785 260.983 39.9307 261.746 39.9002C264.611 39.9002 278.889 39.9969 278.889 39.9969V38.3737C278.889 38.3737 278.919 37.8344 279.27 37.8649C279.622 37.8954 279.906 37.9311 280.034 38.0888C280.161 38.2465 283.595 38.1855 283.595 38.1855C284.078 37.8156 284.672 37.6233 285.28 37.641L295.904 37.6766C295.904 37.6766 296.128 38.562 296.601 38.562C297.074 38.562 297.873 38.6943 297.843 38.1855C299.435 38.1855 303.567 38.1498 303.567 38.1498C303.567 38.1498 303.791 38.1498 303.76 36.7811C303.791 35.6057 303.821 35.7991 299.781 35.7991C298.321 35.7991 298.031 35.7634 298.031 35.7634C298.031 35.7634 298.255 35.2546 297.334 35.2546C296.413 35.2546 295.965 35.7329 295.965 36.0179C295.965 36.3028 295.553 36.2723 295.553 36.2723L284.74 36.1807C284.74 36.1807 284.201 36.1145 284.389 34.527C284.578 32.9394 283.947 32.2983 283.438 32.6494C282.929 33.0005 282.547 33.1582 282.481 33.2549C282.415 33.3516 281.911 32.7461 281.845 32.2016C281.779 31.6572 281.748 26.5129 281.748 26.4163C281.748 26.3196 281.463 25.5563 281.117 25.7802C280.771 26.0041 280.161 25.6835 280.064 26.0652C279.968 26.4468 280.034 33.5093 280.034 33.5093C280.034 33.5093 279.459 33.952 279.143 33.4432C278.828 32.9344 278.507 33.2193 278.573 32.6189C278.583 32.4271 278.554 32.2352 278.488 32.055C278.421 31.8748 278.319 31.71 278.187 31.5707H237.104C237.104 31.5707 236.972 29.5964 236.656 29.7236C235.833 29.8382 235.004 29.9011 234.173 29.9119L234.112 26.6707C234.112 26.6707 233.919 25.7192 233.221 26.2891C232.585 26.3501 232.646 29.1487 232.585 29.4692C232.524 29.7898 232.016 29.7898 232.016 29.7898V30.9296L229.726 31.184C229.726 31.184 226.607 31.759 226.164 32.0795C225.721 32.4001 224.063 32.5222 224.063 32.5222L223.299 32.6494C223.102 32.1294 222.932 31.5995 222.79 31.0619C222.79 30.8685 222.724 29.5354 222.724 29.5354C222.724 29.5354 222.857 30.0442 222.602 29.1487C222.449 28.6133 222.404 28.0529 222.47 27.5001C222.47 27.5001 226.479 26.0346 227.182 24.7626C227.884 23.4905 227.879 18.6566 227.243 16.6824C226.607 14.7081 226.225 14.1382 226.225 13.6294C226.225 13.1206 226.032 11.472 226.032 11.472C224.836 10.8508 223.606 10.297 222.348 9.81319C221.281 9.37278 220.275 8.79643 219.356 8.09844L219.61 7.4624Z" fill="#111827"/>
<path d="M164.206 265.12C164.206 268.54 162.781 271.073 159.931 272.72C157.144 274.303 153.471 275.095 148.911 275.095H115.091C113.191 275.095 111.322 274.905 109.486 274.525C107.712 274.082 106.097 273.448 104.641 272.625C103.247 271.738 102.107 270.693 101.221 269.49C100.397 268.287 99.9857 266.862 99.9857 265.215H148.341V256.285H114.426C112.526 256.285 110.689 256.095 108.916 255.715C107.206 255.272 105.686 254.638 104.356 253.815C103.026 252.928 101.949 251.883 101.126 250.68C100.366 249.413 99.9857 247.925 99.9857 246.215V238.33C99.9857 236.43 100.366 234.783 101.126 233.39C101.949 231.997 103.026 230.857 104.356 229.97C105.686 229.083 107.206 228.45 108.916 228.07C110.689 227.627 112.557 227.405 114.521 227.405H149.101C153.661 227.405 157.302 228.197 160.026 229.78C162.812 231.3 164.206 233.833 164.206 237.38H116.231V246.215H149.006C150.906 246.215 152.774 246.405 154.611 246.785C156.447 247.102 158.062 247.64 159.456 248.4C160.849 249.16 161.989 250.173 162.876 251.44C163.762 252.643 164.206 254.037 164.206 255.62V265.12ZM219.147 275C217.184 275 215.537 274.842 214.207 274.525C212.94 274.208 211.8 273.828 210.787 273.385C209.837 272.942 208.982 272.435 208.222 271.865C207.462 271.295 206.702 270.757 205.942 270.25L185.802 253.055V265.88C185.802 267.59 185.39 269.047 184.567 270.25C183.807 271.39 182.762 272.308 181.432 273.005C180.102 273.702 178.55 274.208 176.777 274.525C175.067 274.842 173.262 275 171.362 275H169.937V227.405H185.802V248.4L206.512 227.405H224.087L202.427 249.73L231.307 275H219.147ZM251.167 275C249.267 275 247.462 274.778 245.752 274.335C244.042 273.828 242.522 273.163 241.192 272.34C239.925 271.453 238.912 270.408 238.152 269.205C237.392 268.002 237.012 266.64 237.012 265.12V227.405H252.877V275H251.167ZM312.781 274.81C311.957 274.81 310.944 274.778 309.741 274.715C308.537 274.588 307.239 274.367 305.846 274.05C304.452 273.67 303.059 273.163 301.666 272.53C300.272 271.833 298.974 270.915 297.771 269.775L280.766 253.815L274.401 247.925V274.81H258.536V227.405H261.766C262.589 227.405 263.634 227.468 264.901 227.595C266.167 227.658 267.466 227.88 268.796 228.26C270.189 228.577 271.582 229.083 272.976 229.78C274.432 230.413 275.762 231.3 276.966 232.44L293.876 248.4C293.939 248.463 294.287 248.78 294.921 249.35C295.554 249.92 296.377 250.68 297.391 251.63C298.404 252.58 299.322 253.403 300.146 254.1V237C300.146 233.643 301.476 231.205 304.136 229.685C306.859 228.165 310.406 227.405 314.776 227.405H316.011V274.81H312.781ZM66.692 339.12C66.692 340.83 66.312 342.287 65.552 343.49C64.792 344.693 63.747 345.707 62.417 346.53C61.1503 347.353 59.6303 347.987 57.857 348.43C56.0836 348.81 54.2153 349 52.252 349H17.007C15.107 349 13.302 348.778 11.592 348.335C9.88195 347.828 8.36195 347.163 7.03195 346.34C5.76529 345.453 4.75195 344.408 3.99195 343.205C3.23195 342.002 2.85195 340.64 2.85195 339.12V311.095C2.85195 309.702 3.23195 308.435 3.99195 307.295C4.75195 306.092 5.76529 305.078 7.03195 304.255C8.36195 303.368 9.88195 302.672 11.592 302.165C13.302 301.658 15.1386 301.405 17.102 301.405H52.252C56.6853 301.405 60.2003 302.228 62.797 303.875C65.3936 305.458 66.692 307.96 66.692 311.38H18.717V339.215H50.922V330.285H39.522C35.722 330.285 32.4286 329.493 29.642 327.91C26.9186 326.327 25.3986 324.363 25.082 322.02V320.215H66.692V339.12ZM132.567 339.12C132.567 340.64 132.155 342.002 131.332 343.205C130.572 344.408 129.527 345.453 128.197 346.34C126.93 347.163 125.442 347.828 123.732 348.335C122.022 348.778 120.185 349 118.222 349H86.777C84.8137 349 82.9454 348.778 81.172 348.335C79.462 347.828 77.942 347.163 76.612 346.34C75.3454 345.453 74.332 344.408 73.572 343.205C72.812 342.002 72.432 340.64 72.432 339.12V301.405H74.142C78.322 301.405 81.7104 302.007 84.307 303.21C86.967 304.413 88.297 306.535 88.297 309.575V339.215H116.702V301.405H132.567V339.12ZM184.471 330.285H154.166V339.215H202.141C202.141 340.925 201.761 342.413 201.001 343.68C200.305 344.883 199.291 345.897 197.961 346.72C196.631 347.48 195.08 348.05 193.306 348.43C191.596 348.81 189.728 349 187.701 349H152.551C150.588 349 148.751 348.778 147.041 348.335C145.331 347.828 143.811 347.163 142.481 346.34C141.215 345.453 140.201 344.408 139.441 343.205C138.681 342.002 138.301 340.64 138.301 339.12V311.285C138.301 309.828 138.681 308.498 139.441 307.295C140.201 306.092 141.215 305.078 142.481 304.255C143.811 303.368 145.331 302.672 147.041 302.165C148.751 301.658 150.556 301.405 152.456 301.405H187.701C192.071 301.405 195.555 302.26 198.151 303.97C200.811 305.68 202.141 308.15 202.141 311.38H154.166V320.215H184.471V330.285ZM272.101 339.12C272.101 342.54 270.676 345.073 267.826 346.72C265.04 348.303 261.366 349.095 256.806 349.095H222.986C221.086 349.095 219.218 348.905 217.381 348.525C215.608 348.082 213.993 347.448 212.536 346.625C211.143 345.738 210.003 344.693 209.116 343.49C208.293 342.287 207.881 340.862 207.881 339.215H256.236V330.285H222.321C220.421 330.285 218.585 330.095 216.811 329.715C215.101 329.272 213.581 328.638 212.251 327.815C210.921 326.928 209.845 325.883 209.021 324.68C208.261 323.413 207.881 321.925 207.881 320.215V312.33C207.881 310.43 208.261 308.783 209.021 307.39C209.845 305.997 210.921 304.857 212.251 303.97C213.581 303.083 215.101 302.45 216.811 302.07C218.585 301.627 220.453 301.405 222.416 301.405H256.996C261.556 301.405 265.198 302.197 267.921 303.78C270.708 305.3 272.101 307.833 272.101 311.38H224.126V320.215H256.901C258.801 320.215 260.67 320.405 262.506 320.785C264.343 321.102 265.958 321.64 267.351 322.4C268.745 323.16 269.885 324.173 270.771 325.44C271.658 326.643 272.101 328.037 272.101 329.62V339.12ZM342.052 339.12C342.052 342.54 340.627 345.073 337.777 346.72C334.991 348.303 331.317 349.095 326.757 349.095H292.937C291.037 349.095 289.169 348.905 287.332 348.525C285.559 348.082 283.944 347.448 282.487 346.625C281.094 345.738 279.954 344.693 279.067 343.49C278.244 342.287 277.832 340.862 277.832 339.215H326.187V330.285H292.272C290.372 330.285 288.536 330.095 286.762 329.715C285.052 329.272 283.532 328.638 282.202 327.815C280.872 326.928 279.796 325.883 278.972 324.68C278.212 323.413 277.832 321.925 277.832 320.215V312.33C277.832 310.43 278.212 308.783 278.972 307.39C279.796 305.997 280.872 304.857 282.202 303.97C283.532 303.083 285.052 302.45 286.762 302.07C288.536 301.627 290.404 301.405 292.367 301.405H326.947C331.507 301.405 335.149 302.197 337.872 303.78C340.659 305.3 342.052 307.833 342.052 311.38H294.077V320.215H326.852C328.752 320.215 330.621 320.405 332.457 320.785C334.294 321.102 335.909 321.64 337.302 322.4C338.696 323.16 339.836 324.173 340.722 325.44C341.609 326.643 342.052 328.037 342.052 329.62V339.12ZM393.859 349.095L371.154 320.215H395.854V311.38H363.649V337.695C363.649 342.192 362.287 345.232 359.564 346.815C358.17 347.638 356.587 348.177 354.814 348.43C353.04 348.683 351.235 348.81 349.399 348.81H347.784V301.405H397.184C401.617 301.405 405.132 302.26 407.729 303.97C410.325 305.68 411.624 308.15 411.624 311.38V320.405C411.624 323.445 410.42 325.82 408.014 327.53C405.67 329.24 402.314 330.19 397.944 330.38L413.144 349.095H393.859Z" fill="white"/>
</g>
<defs>
<clipPath id="clip0_5882_149779">
<rect width="416" height="356" fill="white"/>
</clipPath>
</defs>
</svg>
