<svg width="416" height="488" viewBox="0 0 416 488" fill="none" xmlns="http://www.w3.org/2000/svg">
<g clip-path="url(#clip0_5882_149779)">
<path d="M51.2466 8.5H365.414C371.489 8.5 376.413 13.4249 376.413 19.5V311C376.413 317.075 371.489 322 365.413 322H51.2466C45.1714 322 40.2466 317.075 40.2466 311V19.5C40.2466 13.4249 45.1715 8.5 51.2466 8.5Z" fill="white" stroke="white" stroke-width="18" stroke-miterlimit="10"/>
<path d="M45.0225 11.9814H203.787C203.787 11.9814 194.937 18.3972 192.999 26.5389C191.061 34.6807 191.468 40.4776 192.901 44.345C192.868 45.5524 192.477 46.7227 191.778 47.7075C190.654 49.1242 190.76 44.7521 185.574 45.0533C180.387 45.3546 173.149 43.7343 163.485 61.1414C163.485 61.1414 160.334 69.1774 159.821 76.0979C159.308 83.0184 158.706 92.4873 159.618 94.9298C160.53 97.3723 149.75 96.7535 149.75 96.7535C149.75 96.7535 146.998 97.47 146.9 98.5936C146.803 99.7171 146.9 105.612 146.998 108.966C147.096 112.321 146.282 114.258 145.98 117.417C145.679 120.576 143.644 123.426 143.945 126.984C144.246 130.542 149.848 130.754 153.104 131.055C156.361 131.356 156.052 132.073 154.228 132.577C152.404 133.082 146.998 133.196 147.202 139.71C147.405 146.223 149.441 161.692 149.945 165.861C150.45 170.029 146.795 166.268 147.202 167.489C147.609 168.71 145.777 166.773 144.653 171.462C143.53 176.152 144.963 175.322 145.467 175.94C145.605 176.111 145.775 176.253 145.968 176.356C146.161 176.46 146.373 176.523 146.591 176.543L145.06 178.684L144.556 181.127L145.37 182.861L146.184 183.569C145.612 184.221 145.305 185.063 145.324 185.929C145.342 186.795 145.683 187.624 146.282 188.251C148.423 190.693 147.405 189.57 147.202 191.915C146.998 194.259 142.724 211.658 143.839 219.287C144.955 226.916 141.201 229.269 139.573 232.623C137.944 235.978 128.476 250.739 128.883 254.199C129.29 257.659 127.963 261.323 126.953 263.253C125.943 265.182 121.449 269.766 121.661 274.553C121.873 279.341 122.166 280.049 124.405 282.085C124.405 282.085 122.475 288.704 121.759 291.448C121.042 294.191 118.298 304.987 117.785 306.917C117.273 308.847 116.369 312.51 116.67 314.448L116.369 315.262H45.0225V11.9814Z" fill="#111827"/>
<path d="M140.99 315.262H225.974C225.974 315.262 226.69 305.183 229.027 300.607C231.363 296.031 230.859 290.43 230.655 286.766C230.452 283.102 230.956 276.686 228.009 275.058L227.504 270.58C227.504 270.58 224.549 263.871 225.363 262.137C225.159 260.207 224.549 243.818 224.549 243.818C224.549 243.818 225.469 240.765 227.195 239.544C227.7 238.013 228.107 229.163 226.283 227.331C224.655 225.499 223.433 225.605 219.77 225.198C216.106 224.791 218.141 228.959 205.521 209.419C203.38 205.755 201.141 202.295 200.123 200.968C199.106 199.641 197.575 199.649 195.238 199.445C192.902 199.242 192.592 199.144 190.557 195.374L188.521 191.605C188.521 191.605 188 190.595 185.924 197.003C183.848 203.41 181.699 197.003 177.628 212.985C175.088 218.375 174.884 218.986 174.477 226.207C173.459 229.871 171.326 230.791 169.079 232.216C166.832 233.641 166.539 237.606 165.725 238.632C164.91 239.658 161.654 239.641 159.928 245.748C158.202 251.854 157.892 248.296 159.618 253.995C159.618 253.995 157.078 263.765 155.547 266.004C154.017 268.243 151.574 274.455 150.866 277.305C150.157 280.155 146.998 284.226 144.654 284.633C142.309 285.04 139.671 293.589 139.361 295.925C139.052 298.262 138.14 310.784 139.361 312.616C139.709 313.604 140.264 314.507 140.99 315.262Z" fill="#111827"/>
<path d="M226.38 11.9814H371.98V315.262H275.793C275.071 314.563 274.543 313.687 274.262 312.722C273.554 310.784 265.054 307.43 262.513 306.762C259.973 306.095 254.925 297.806 253.199 296.031C252.562 295.176 252.143 294.179 251.978 293.125L251.009 276.638C250.935 275.89 251.154 275.143 251.62 274.553C252.385 273.69 253.753 271.5 253.606 269.717C253.46 267.934 252.792 260.712 252.385 259.801C251.978 258.889 252.125 257.358 252.076 256.544C252.027 255.73 253.045 253.336 253.297 252.473C253.549 251.61 255.894 233.592 255.691 232.42C255.487 231.247 255.593 222.039 254.062 221.07C252.532 220.101 253.753 215.835 253.248 215.119C252.743 214.402 250.903 215.371 250.244 212.985C249.584 210.6 242.615 194.202 242.615 194.202L237.982 184.636C237.982 184.636 225.468 166.675 223.987 165.299C222.505 163.923 222.155 155.325 223.482 153.143C224.809 150.961 225.468 153.494 225.615 153.494C225.762 153.494 229.181 155.684 230.655 154.153C232.128 152.622 235.996 146.63 236.053 144.334C236.11 142.038 237.168 119.355 236.46 118.28C236.199 117.214 235.589 113.395 231.518 111.97C227.447 110.546 231.624 109.023 231.518 106.882C231.412 104.741 230.809 103.218 232.283 104.236C233.757 105.254 250.447 114.519 252.638 114.82C253.997 115.066 255.376 115.186 256.757 115.178C258.288 115.178 260.071 117.059 260.73 116.807C261.439 116.807 263.987 116.913 269.483 112.329C274.979 107.745 275.89 108.258 277.218 103.576C278.545 98.8948 278.129 92.2267 281.028 91.5184C283.926 90.81 286.426 93.3991 283.422 83.8325C281.997 74.6242 282.355 74.2171 283.682 74.1113C284.846 73.5006 284.496 73.6553 287.134 70.6999C289.772 67.7444 289.837 67.5979 289.984 67.2966C290.096 66.8634 290.148 66.4169 290.138 65.9695C290.138 65.9695 290.953 65.4647 291.205 65.2612C291.765 64.9688 292.366 64.763 292.988 64.6505C293.241 64.6505 292.581 63.9341 293.802 63.8852C298.386 63.8852 321.232 64.0399 321.232 64.0399V61.4427C321.232 61.4427 321.281 60.5797 321.843 60.6285C322.404 60.6774 322.86 60.7344 323.064 60.9867C323.267 61.2391 328.763 61.1414 328.763 61.1414C329.534 60.5497 330.486 60.242 331.458 60.2703L348.458 60.3273C348.458 60.3273 348.816 61.7439 349.573 61.7439C350.331 61.7439 351.609 61.9556 351.56 61.1414C354.108 61.1414 360.719 61.0844 360.719 61.0844C360.719 61.0844 361.078 61.0845 361.029 58.8943C361.078 57.0136 361.127 57.323 354.662 57.323C352.325 57.323 351.861 57.266 351.861 57.266C351.861 57.266 352.219 56.4518 350.746 56.4518C349.272 56.4518 348.556 57.2171 348.556 57.673C348.556 58.129 347.896 58.0801 347.896 58.0801L330.595 57.9336C330.595 57.9336 329.732 57.8277 330.033 55.2875C330.334 52.7473 329.325 51.7214 328.511 52.2832C327.696 52.845 327.086 53.0974 326.98 53.2521C326.874 53.4068 326.068 52.4379 325.962 51.5667C325.856 50.6956 325.808 42.4642 325.808 42.3095C325.808 42.1548 325.352 40.9336 324.798 41.2918C324.244 41.65 323.267 41.1371 323.113 41.7477C322.958 42.3584 323.064 53.6592 323.064 53.6592C323.064 53.6592 322.144 54.3675 321.639 53.5533C321.134 52.7391 320.621 53.1951 320.727 52.2343C320.743 51.9274 320.697 51.6204 320.59 51.3321C320.484 51.0437 320.32 50.78 320.108 50.5571H254.372C254.372 50.5571 254.16 47.3981 253.655 47.6017C252.338 47.7849 251.011 47.8856 249.682 47.9029L249.584 42.7166C249.584 42.7166 249.275 41.1941 248.16 42.106C247.142 42.2037 247.24 46.6817 247.142 47.1946C247.044 47.7075 246.23 47.7075 246.23 47.7075V49.5313L242.566 49.9384C242.566 49.9384 237.575 50.8584 236.867 51.3713C236.159 51.8842 233.504 52.0797 233.504 52.0797L232.283 52.2832C231.968 51.4511 231.696 50.6033 231.469 49.743C231.469 49.4336 231.363 47.3004 231.363 47.3004C231.363 47.3004 231.575 48.1146 231.168 46.6817C230.923 45.8251 230.851 44.9284 230.956 44.0437C230.956 44.0437 237.372 41.6989 238.495 39.6635C239.619 37.628 239.611 29.8933 238.593 26.7343C237.575 23.5753 236.965 22.6634 236.965 21.8493C236.965 21.0351 236.655 18.3972 236.655 18.3972C234.741 17.4032 232.773 16.517 230.761 15.7429C229.053 15.0382 227.444 14.116 225.973 12.9992L226.38 11.9814Z" fill="#111827"/>
<path d="M164.206 397.12C164.206 400.54 162.781 403.073 159.931 404.72C157.144 406.303 153.471 407.095 148.911 407.095H115.091C113.191 407.095 111.322 406.905 109.486 406.525C107.712 406.082 106.097 405.448 104.641 404.625C103.247 403.738 102.107 402.693 101.221 401.49C100.397 400.287 99.9857 398.862 99.9857 397.215H148.341V388.285H114.426C112.526 388.285 110.689 388.095 108.916 387.715C107.206 387.272 105.686 386.638 104.356 385.815C103.026 384.928 101.949 383.883 101.126 382.68C100.366 381.413 99.9857 379.925 99.9857 378.215V370.33C99.9857 368.43 100.366 366.783 101.126 365.39C101.949 363.997 103.026 362.857 104.356 361.97C105.686 361.083 107.206 360.45 108.916 360.07C110.689 359.627 112.557 359.405 114.521 359.405H149.101C153.661 359.405 157.302 360.197 160.026 361.78C162.812 363.3 164.206 365.833 164.206 369.38H116.231V378.215H149.006C150.906 378.215 152.774 378.405 154.611 378.785C156.447 379.102 158.062 379.64 159.456 380.4C160.849 381.16 161.989 382.173 162.876 383.44C163.762 384.643 164.206 386.037 164.206 387.62V397.12ZM219.147 407C217.184 407 215.537 406.842 214.207 406.525C212.94 406.208 211.8 405.828 210.787 405.385C209.837 404.942 208.982 404.435 208.222 403.865C207.462 403.295 206.702 402.757 205.942 402.25L185.802 385.055V397.88C185.802 399.59 185.39 401.047 184.567 402.25C183.807 403.39 182.762 404.308 181.432 405.005C180.102 405.702 178.55 406.208 176.777 406.525C175.067 406.842 173.262 407 171.362 407H169.937V359.405H185.802V380.4L206.512 359.405H224.087L202.427 381.73L231.307 407H219.147ZM251.167 407C249.267 407 247.462 406.778 245.752 406.335C244.042 405.828 242.522 405.163 241.192 404.34C239.925 403.453 238.912 402.408 238.152 401.205C237.392 400.002 237.012 398.64 237.012 397.12V359.405H252.877V407H251.167ZM312.781 406.81C311.957 406.81 310.944 406.778 309.741 406.715C308.537 406.588 307.239 406.367 305.846 406.05C304.452 405.67 303.059 405.163 301.666 404.53C300.272 403.833 298.974 402.915 297.771 401.775L280.766 385.815L274.401 379.925V406.81H258.536V359.405H261.766C262.589 359.405 263.634 359.468 264.901 359.595C266.167 359.658 267.466 359.88 268.796 360.26C270.189 360.577 271.582 361.083 272.976 361.78C274.432 362.413 275.762 363.3 276.966 364.44L293.876 380.4C293.939 380.463 294.287 380.78 294.921 381.35C295.554 381.92 296.377 382.68 297.391 383.63C298.404 384.58 299.322 385.403 300.146 386.1V369C300.146 365.643 301.476 363.205 304.136 361.685C306.859 360.165 310.406 359.405 314.776 359.405H316.011V406.81H312.781ZM66.692 471.12C66.692 472.83 66.312 474.287 65.552 475.49C64.792 476.693 63.747 477.707 62.417 478.53C61.1503 479.353 59.6303 479.987 57.857 480.43C56.0836 480.81 54.2153 481 52.252 481H17.007C15.107 481 13.302 480.778 11.592 480.335C9.88195 479.828 8.36195 479.163 7.03195 478.34C5.76529 477.453 4.75195 476.408 3.99195 475.205C3.23195 474.002 2.85195 472.64 2.85195 471.12V443.095C2.85195 441.702 3.23195 440.435 3.99195 439.295C4.75195 438.092 5.76529 437.078 7.03195 436.255C8.36195 435.368 9.88195 434.672 11.592 434.165C13.302 433.658 15.1386 433.405 17.102 433.405H52.252C56.6853 433.405 60.2003 434.228 62.797 435.875C65.3936 437.458 66.692 439.96 66.692 443.38H18.717V471.215H50.922V462.285H39.522C35.722 462.285 32.4286 461.493 29.642 459.91C26.9186 458.327 25.3986 456.363 25.082 454.02V452.215H66.692V471.12ZM132.567 471.12C132.567 472.64 132.155 474.002 131.332 475.205C130.572 476.408 129.527 477.453 128.197 478.34C126.93 479.163 125.442 479.828 123.732 480.335C122.022 480.778 120.185 481 118.222 481H86.777C84.8137 481 82.9454 480.778 81.172 480.335C79.462 479.828 77.942 479.163 76.612 478.34C75.3454 477.453 74.332 476.408 73.572 475.205C72.812 474.002 72.432 472.64 72.432 471.12V433.405H74.142C78.322 433.405 81.7104 434.007 84.307 435.21C86.967 436.413 88.297 438.535 88.297 441.575V471.215H116.702V433.405H132.567V471.12ZM184.471 462.285H154.166V471.215H202.141C202.141 472.925 201.761 474.413 201.001 475.68C200.305 476.883 199.291 477.897 197.961 478.72C196.631 479.48 195.08 480.05 193.306 480.43C191.596 480.81 189.728 481 187.701 481H152.551C150.588 481 148.751 480.778 147.041 480.335C145.331 479.828 143.811 479.163 142.481 478.34C141.215 477.453 140.201 476.408 139.441 475.205C138.681 474.002 138.301 472.64 138.301 471.12V443.285C138.301 441.828 138.681 440.498 139.441 439.295C140.201 438.092 141.215 437.078 142.481 436.255C143.811 435.368 145.331 434.672 147.041 434.165C148.751 433.658 150.556 433.405 152.456 433.405H187.701C192.071 433.405 195.555 434.26 198.151 435.97C200.811 437.68 202.141 440.15 202.141 443.38H154.166V452.215H184.471V462.285ZM272.101 471.12C272.101 474.54 270.676 477.073 267.826 478.72C265.04 480.303 261.366 481.095 256.806 481.095H222.986C221.086 481.095 219.218 480.905 217.381 480.525C215.608 480.082 213.993 479.448 212.536 478.625C211.143 477.738 210.003 476.693 209.116 475.49C208.293 474.287 207.881 472.862 207.881 471.215H256.236V462.285H222.321C220.421 462.285 218.585 462.095 216.811 461.715C215.101 461.272 213.581 460.638 212.251 459.815C210.921 458.928 209.845 457.883 209.021 456.68C208.261 455.413 207.881 453.925 207.881 452.215V444.33C207.881 442.43 208.261 440.783 209.021 439.39C209.845 437.997 210.921 436.857 212.251 435.97C213.581 435.083 215.101 434.45 216.811 434.07C218.585 433.627 220.453 433.405 222.416 433.405H256.996C261.556 433.405 265.198 434.197 267.921 435.78C270.708 437.3 272.101 439.833 272.101 443.38H224.126V452.215H256.901C258.801 452.215 260.67 452.405 262.506 452.785C264.343 453.102 265.958 453.64 267.351 454.4C268.745 455.16 269.885 456.173 270.771 457.44C271.658 458.643 272.101 460.037 272.101 461.62V471.12ZM342.052 471.12C342.052 474.54 340.627 477.073 337.777 478.72C334.991 480.303 331.317 481.095 326.757 481.095H292.937C291.037 481.095 289.169 480.905 287.332 480.525C285.559 480.082 283.944 479.448 282.487 478.625C281.094 477.738 279.954 476.693 279.067 475.49C278.244 474.287 277.832 472.862 277.832 471.215H326.187V462.285H292.272C290.372 462.285 288.536 462.095 286.762 461.715C285.052 461.272 283.532 460.638 282.202 459.815C280.872 458.928 279.796 457.883 278.972 456.68C278.212 455.413 277.832 453.925 277.832 452.215V444.33C277.832 442.43 278.212 440.783 278.972 439.39C279.796 437.997 280.872 436.857 282.202 435.97C283.532 435.083 285.052 434.45 286.762 434.07C288.536 433.627 290.404 433.405 292.367 433.405H326.947C331.507 433.405 335.149 434.197 337.872 435.78C340.659 437.3 342.052 439.833 342.052 443.38H294.077V452.215H326.852C328.752 452.215 330.621 452.405 332.457 452.785C334.294 453.102 335.909 453.64 337.302 454.4C338.696 455.16 339.836 456.173 340.722 457.44C341.609 458.643 342.052 460.037 342.052 461.62V471.12ZM393.859 481.095L371.154 452.215H395.854V443.38H363.649V469.695C363.649 474.192 362.287 477.232 359.564 478.815C358.17 479.638 356.587 480.177 354.814 480.43C353.04 480.683 351.235 480.81 349.399 480.81H347.784V433.405H397.184C401.617 433.405 405.132 434.26 407.729 435.97C410.325 437.68 411.624 440.15 411.624 443.38V452.405C411.624 455.445 410.42 457.82 408.014 459.53C405.67 461.24 402.314 462.19 397.944 462.38L413.144 481.095H393.859Z" fill="white"/>
</g>
<defs>
<clipPath id="clip0_5882_149779">
<rect width="416" height="488" fill="white"/>
</clipPath>
</defs>
</svg>
